<svg aria-hidden="true" style="position:absolute;width:0;height:0;overflow:hidden" xmlns="http://www.w3.org/2000/svg">
  <defs>
    <symbol id="box-add" viewBox="0 0 32 32">
      <path d="M26 2H6L0 8v21a1 1 0 0 0 1 1h30a1 1 0 0 0 1-1V8l-6-6zM16 26 6 18h6v-6h8v6h6l-10 8zM4.828 6l2-2h18.343l2 2H4.828z"/>
    </symbol>
    <symbol id="bubbles" viewBox="0 0 36 32">
      <path d="M34 28.161a3.65 3.65 0 0 0 2 3.256v.498a7.42 7.42 0 0 1-6.414-2.251c-.819.218-1.688.336-2.587.336-4.971 0-9-3.582-9-8s4.029-8 9-8 9 3.582 9 8c0 1.73-.618 3.331-1.667 4.64a3.635 3.635 0 0 0-.333 1.522zM16 0c8.702 0 15.781 5.644 15.995 12.672A12.262 12.262 0 0 0 27 11.625c-2.986 0-5.807 1.045-7.942 2.943-2.214 1.968-3.433 4.607-3.433 7.432 0 1.396.298 2.747.867 3.993a19.66 19.66 0 0 1-2.987-.151C10.068 29.279 5.966 29.895 2 29.986v-.841C4.142 28.096 6 26.184 6 24c0-.305-.024-.604-.068-.897C2.313 20.72 0 17.079 0 13 0 5.82 7.163 0 16 0z"/>
    </symbol>
    <symbol id="search" viewBox="0 0 32 32">
      <path d="m31.008 27.231-7.58-6.447c-.784-.705-1.622-1.029-2.299-.998a11.954 11.954 0 0 0 2.87-7.787c0-6.627-5.373-12-12-12s-12 5.373-12 12 5.373 12 12 12c2.972 0 5.691-1.081 7.787-2.87-.031.677.293 1.515.998 2.299l6.447 7.58c1.104 1.226 2.907 1.33 4.007.23s.997-2.903-.23-4.007zM12 20a8 8 0 1 1 0-16 8 8 0 0 1 0 16z"/>
    </symbol>
    <symbol id="eye" viewBox="0 0 32 32">
      <path d="M16 6C9.021 6 2.972 10.064 0 16c2.972 5.936 9.021 10 16 10s13.027-4.064 16-10c-2.972-5.936-9.021-10-16-10zm7.889 5.303A15.212 15.212 0 0 1 28.559 16a15.223 15.223 0 0 1-4.67 4.697C21.527 22.204 18.799 23 16 23s-5.527-.796-7.889-2.303A15.212 15.212 0 0 1 3.441 16a15.223 15.223 0 0 1 5.041-4.925 8 8 0 1 0 15.036 0c.124.074.248.15.371.228zM16 13a3 3 0 1 1-6 0 3 3 0 0 1 6 0z"/>
    </symbol>
    <symbol id="heart" viewBox="0 0 32 32">
      <path d="M23.6 2c-3.363 0-6.258 2.736-7.599 5.594C14.659 4.736 11.764 2 8.4 2 3.763 2 0 5.764 0 10.401c0 9.433 9.516 11.906 16.001 21.232C22.131 22.365 32 19.533 32 10.401 32 5.764 28.237 2 23.6 2z"/>
    </symbol>
  </defs>
</svg>
